<?xml version="1.0" encoding="UTF-8"?>
<svg fill="#fff" version="1.1" viewBox="0 0 48 48" xmlns="http://www.w3.org/2000/svg"><g transform="matrix(1.0568 0 0 1.0568 -1.3623 .42611)"><path d="m16.074 7.4648c-1.108 0-2 0.892-2 2v1.3848h-2.1152v-0.56055c0-0.554-0.446-1-1-1h-3.7441c-0.554 0-1 0.446-1 1v0.56055h-0.38867c-1.6018 0-2.8926 1.338-2.8926 3v20.301c0 1.662 1.2908 3 2.8926 3h36.348c1.6018 0 2.8926-1.338 2.8926-3v-20.301c0-1.662-1.2908-3-2.8926-3h-8.248v-1.3848c0-1.108-0.892-2-2-2zm24.512 5.541a2.2869 2.2869 0 0 1 2.2871 2.2871 2.2869 2.2869 0 0 1-2.2871 2.2852 2.2869 2.2869 0 0 1-2.2871-2.2852 2.2869 2.2869 0 0 1 2.2871-2.2871zm-16.586 0.9668a10.027 10.027 0 0 1 10.027 10.027 10.027 10.027 0 0 1-10.027 10.027 10.027 10.027 0 0 1-10.027-10.027 10.027 10.027 0 0 1 10.027-10.027z"/><circle cx="24" cy="24" r="7.5644"/></g></svg>
