<?xml version="1.0" encoding="UTF-8"?>
<svg fill="#fff" stroke="#fff" version="1.1" viewBox="0 0 48 48" xmlns="http://www.w3.org/2000/svg"><path d="m21.506 1.6687c-1.132 0-2.0434 0.91134-2.0434 2.0434v4.1226a16.804 16.804 0 0 0-3.6637 1.5465l-2.9353-2.9353c-0.80046-0.80046-2.089-0.80046-2.8894 0l-3.528 3.528c-0.80046 0.80046-0.80046 2.089 0 2.8894l2.9353 2.9353a16.804 16.804 0 0 0-1.5465 3.6637h-4.1226c-1.132 0-2.0434 0.91134-2.0434 2.0434v4.9887c0 1.132 0.91134 2.0434 2.0434 2.0434h4.1226a16.804 16.804 0 0 0 1.5465 3.6637l-2.9353 2.9353c-0.80046 0.80046-0.80046 2.089 0 2.8894l3.528 3.528c0.80046 0.80046 2.089 0.80046 2.8894 0l2.9353-2.9353a16.804 16.804 0 0 0 3.6637 1.5465v4.1226c0 1.132 0.91134 2.0434 2.0434 2.0434h4.9887c1.132 0 2.0434-0.91134 2.0434-2.0434v-4.1226a16.804 16.804 0 0 0 3.6637-1.5465l2.9353 2.9353c0.80046 0.80046 2.089 0.80046 2.8894 0l3.528-3.528c0.80046-0.80046 0.80046-2.089 0-2.8894l-2.9353-2.9353a16.804 16.804 0 0 0 1.5465-3.6637h4.1226c1.132 0 2.0434-0.91134 2.0434-2.0434v-4.9887c0-1.132-0.91134-2.0434-2.0434-2.0434h-4.1147a16.804 16.804 0 0 0-1.5265-3.6916l2.9074-2.9074c0.80046-0.80046 0.80046-2.089 0-2.8894l-3.528-3.528c-0.80046-0.80046-2.089-0.80046-2.8894 0l-2.9074 2.9074a16.804 16.804 0 0 0-3.6916-1.5265v-4.1147c0-1.132-0.91134-2.0434-2.0434-2.0434zm2.4943 12.625a9.7054 9.7054 0 0 1 9.706 9.706 9.7054 9.7054 0 0 1-9.706 9.706 9.7054 9.7054 0 0 1-9.706-9.706 9.7054 9.7054 0 0 1 9.706-9.706z" stroke-linecap="round" stroke-linejoin="round" stroke-width=".93418"/></svg>
