<?xml version="1.0" encoding="UTF-8"?>
<!-- Created with Inkscape (http://www.inkscape.org/) -->
<svg width="48" height="48" version="1.1" stroke="#fff" fill="#fff" viewBox="0 0 48 48" xmlns="http://www.w3.org/2000/svg">
 <g transform="matrix(1.1334 0 0 1.1334 -2.1055 -3.2026)" stroke-linecap="round" stroke-linejoin="round">
  <path d="m24.248 7.2386c-0.14827-0.00658-0.29262 0.045582-0.42578 0.17188l-9.832 9.3242c-0.30728 0.29144-0.58887 0.57351-0.85938 0.85352h-7.7402c-0.99233 0-1.791 0.71123-1.791 1.5938v9.6348c0 0.88252 0.79869 1.5938 1.791 1.5938h7.8887c0.232 0.23168 0.4681 0.46507 0.71094 0.69922l9.832 9.4785c0.7046 0.6794 1.7656-0.78683 1.7656-1.7656v-29.646c0-0.79527-0.69735-1.909-1.3398-1.9375z" stroke-width=".8446"/>
  <g stroke-width="3">
   <path d="m29.834 17.684v12.631"/>
   <path d="m35.562 11.702v24.595"/>
   <path d="m40.964 6.9289v34.142"/>
  </g>
 </g>
</svg>
