<?xml version="1.0" encoding="UTF-8"?>
<!-- Created with Inkscape (http://www.inkscape.org/) -->
<svg width="48" height="48" version="1.1" stroke="#fff" fill="#fff" viewBox="0 0 48 48" xmlns="http://www.w3.org/2000/svg">
 <g stroke-linecap="round" stroke-linejoin="round">
  <path d="m25.378 5.002c-0.16805-0.00746-0.33167 0.051665-0.4826 0.19481l-11.144 10.568c-0.34828 0.33032-0.66745 0.65004-0.97405 0.96741h-8.7731c-1.1247 0-2.03 0.80613-2.03 1.8064v10.92c0 1.0003 0.90526 1.8064 2.03 1.8064h8.9413c0.26295 0.2626 0.53057 0.52712 0.8058 0.79252l11.144 10.743c0.79862 0.77006 2.0012-0.89182 2.0012-2.0012v-33.603c0-0.90139-0.7904-2.1637-1.5186-2.196z" stroke-width=".9573"/>
  <path transform="rotate(-45)" d="m10.108 33.987c-0.2241-0.21523-0.49541-0.33974-0.78721-0.33974-0.77814 0-1.4045 0.89041-1.4045 1.9984v6.212h-6.212c-1.108 0-1.9984 0.62641-1.9984 1.4045s0.89041 1.4045 1.9984 1.4045h6.212v6.212c0 1.108 0.62641 1.9984 1.4045 1.9984 0.77814 0 1.4045-0.89041 1.4045-1.9984v-6.212h6.212c1.108 0 1.9984-0.62641 1.9984-1.4045s-0.89041-1.4045-1.9984-1.4045h-6.212v-6.212c0-0.6925-0.24384-1.3-0.61734-1.6587z" stroke-width="3"/>
 </g>
</svg>
