<?xml version="1.0" encoding="UTF-8"?>
<svg version="1.1" viewBox="0 0 32 32" xmlns="http://www.w3.org/2000/svg"><defs><filter id="filter145038" x="0" y="0" width="1.0079" height="1.0088" color-interpolation-filters="sRGB"><feFlood flood-color="rgb(0,0,0)" flood-opacity=".43137" result="flood"/><feComposite in="flood" in2="SourceGraphic" operator="in" result="composite1"/><feGaussianBlur in="composite1" result="blur"/><feOffset dx="3.44729" dy="4.3" result="offset"/><feComposite in="SourceGraphic" in2="offset" result="composite2"/></filter></defs><g><g transform="matrix(.063113 0 0 .063113 -.14525 -.0043812)" filter="url(#filter145038)"><g transform="translate(-1.9096 -4.568)"><g><path d="m154.33 394.28c5.5825 31.813 34.602 55.923 69.798 55.923h63.735c35.196 0 64.218-24.11 69.8-55.923-36.766 12.371-101.67 20.069-101.67 20.069s-64.9-7.6984-101.67-20.069z" fill="#3d2614" stroke-width="1.1202"/><g stroke-width="1.0821"><path d="m308.2 406.24c-27.492 5.1195-52.199 8.1092-52.199 8.1092s-24.686-2.9875-52.164-8.1029a61.545 61.545 0 0 0-9.3815 32.564 61.545 61.545 0 0 0 61.545 61.545 61.545 61.545 0 0 0 61.545-61.545 61.545 61.545 0 0 0-9.3456-32.57z" fill="#c6683c"/><path d="m50.169 11.646c-28.759 74.661-6.6411 127.53 22.795 172.25-20.365 39.625-37.397 89.26-23.009 128.84 15.268 42.002 54.549 60.772 95.064 78.08 33.686 14.391 110.98 23.531 110.98 23.531s77.295-9.1397 110.98-23.531c40.515-17.309 79.796-36.079 95.064-78.08 14.389-39.583-2.6438-89.218-23.009-128.84 29.436-44.721 51.555-97.587 22.795-172.25-36.153 2.1451-58.347 0.51348-135.21 69.056-31.484-10.234-70.624-10.871-70.624-10.871s-39.141 0.63755-70.624 10.871c-76.86-68.543-99.053-66.911-135.21-69.056z" fill="#e9d2c0"/><path d="m80.677 254.5c-2.0556 0.0334-4.2173 0.2201-6.4375 0.57274l-27.889 4.4297c-1.0661 6.863-1.6714 13.682-1.695 20.39l32.701-5.1927c11.841-1.8808 20.677-7.7722 19.813-13.209-0.70162-4.4173-7.5853-7.136-16.493-6.9912zm355.6 0c-8.9078-0.14483-15.792 2.5739-16.493 6.9912-0.86354 5.4367 7.9724 11.328 19.813 13.209l27.726 4.4023c-0.0683-6.7173-0.69153-13.539-1.7943-20.405l-22.812-3.6245c-2.2202-0.35264-4.384-0.53933-6.4396-0.57273zm-333.26 44.285c-4.3042-0.0356-9.6933 1.1704-15.162 3.6266l-35.575 15.977c2.7578 6.3047 6.0825 12.062 9.8972 17.343l33.821-15.191c10.937-4.9124 17.924-12.911 15.669-17.932-1.1277-2.5108-4.3461-3.7876-8.6502-3.8232zm310.91 0c-4.3042 0.0356-7.5225 1.3124-8.6502 3.8232-2.2555 5.0215 4.7321 13.02 15.669 17.932l30.114 13.526c3.6761-5.3319 6.801-11.2 9.4216-17.554l-31.393-14.101c-5.4684-2.4562-10.858-3.6622-15.162-3.6266z" fill="#db8b66"/></g><g transform="matrix(1.0821 0 0 1.0821 -25.823 -33.56)" fill="#3d2614"><path d="m353.02 242.48a17.861 48.809 0 0 1-17.861 48.809 17.861 48.809 0 0 1-17.861-48.809 17.861 48.809 0 0 1 17.861-48.809 17.861 48.809 0 0 1 17.861 48.809z" stroke-width=".9683"/><path d="m162.03 216.32c-6.091-2.7288-3.7307 19.672-3.7307 19.672 11.301 8.2273 35.891 14.757 35.891 14.757s-33.815 6.1046-35.313 17.411l5.0494 14.651s37.989-7.4929 54.555-22.697c15.019-13.785-35.657-34.479-56.451-43.795z"/><path transform="rotate(-55.185)" d="m-8.9014 268.63a8.2397 16.638 0 0 1-8.2397 16.638 8.2397 16.638 0 0 1-8.2397-16.638 8.2397 16.638 0 0 1 8.2397-16.638 8.2397 16.638 0 0 1 8.2397 16.638z"/><path transform="matrix(-.57092 -.821 -.821 .57092 0 0)" d="m-304.05-155.38a8.2397 16.638 0 0 1-8.2397 16.638 8.2397 16.638 0 0 1-8.2397-16.638 8.2397 16.638 0 0 1 8.2397-16.638 8.2397 16.638 0 0 1 8.2397 16.638z"/></g><path d="m248.06 285.74c2.6523-5.7865 16.444-5.7865 19.096 0 2.0316 4.4324-9.5482 11.081-9.5482 11.081s-11.58-6.6489-9.5482-11.081z" fill="#c6683c" stroke-width=".75348"/><path d="m216.28 308.73v2.4579c0 27.963 19.588 50.475 43.919 50.475s43.919-22.512 43.919-50.475v-2.4579z" fill="#3d2614" stroke-width="1.1562"/><path d="m260.2 328.15c-15.079 0-27.219 8.8618-27.219 19.868v2.8193c7.4744 6.7762 16.917 10.823 27.219 10.823 10.301 0 19.744-4.0467 27.219-10.823v-2.8193c0-11.006-12.14-19.868-27.219-19.868z" fill="#db8b66" stroke-width="1.0821"/></g><path d="m293.49 321.18c-3.4185 0-7.1875-12.449-7.1875-12.449h14.375s-3.3788 12.449-7.1875 12.449z" fill="#fff" stroke-width="1.0821"/><path d="m308.2 406.24c-27.492 5.1195-52.199 8.1094-52.199 8.1094s-11.6-1.4183-27.625-3.9258a45.15 45.15 0 0 0-3.3086 16.689 45.15 45.15 0 0 0 45.15 45.148 45.15 45.15 0 0 0 45.15-45.148 45.15 45.15 0 0 0-0.37305-5.6934 61.545 61.545 0 0 0-6.7949-15.18z" fill="#faad69"/></g></g></g></svg>
